<svg width="300" height="239" viewBox="0 0 300 239" fill="none" xmlns="http://www.w3.org/2000/svg">
<path d="M43.8219 215.619C102.251 246.143 196.99 246.143 255.419 215.619C313.848 185.095 313.848 135.604 255.419 105.074C196.99 74.5431 102.278 74.5498 43.8219 105.074C-14.634 135.598 -14.5806 185.095 43.8219 215.619Z" fill="#F5F5F5"/>
<path d="M27.5344 165.561L8.54126 154.598V113.859L27.5344 124.829V165.561Z" fill="#E0E0E0"/>
<path d="M27.5344 124.829L54.6713 109.162V149.894L27.5344 165.561V124.829Z" fill="#EBEBEB"/>
<path d="M54.6713 109.162L27.5344 124.829L8.54126 113.859L35.6782 98.1927L54.6713 109.162Z" fill="#F5F5F5"/>
<path d="M30.2534 126.392L51.959 113.859L52.46 114.146V129.238L30.7478 141.771L30.2468 141.483L30.2534 126.392Z" fill="#E0E0E0"/>
<path d="M30.7479 126.686L52.4601 114.146V129.238L30.7479 141.771V126.686Z" fill="#F5F5F5"/>
<path d="M39.259 124.328L42.9534 122.196C43.4277 121.916 43.8152 122.043 43.8152 122.477C43.7808 122.743 43.685 122.997 43.5355 123.22C43.3859 123.442 43.1866 123.627 42.9534 123.76L39.259 125.891C38.778 126.171 38.3905 126.044 38.3905 125.61C38.4251 125.343 38.5217 125.089 38.6725 124.866C38.8233 124.643 39.0242 124.459 39.259 124.328Z" fill="#E0E0E0"/>
<path d="M29.7524 145.485L51.458 132.952V148.044L51.959 148.331L30.2468 160.864L29.7524 160.577V145.485Z" fill="#E0E0E0"/>
<path d="M30.2468 145.772L51.959 133.24V148.331L30.2468 160.864V145.772Z" fill="#F5F5F5"/>
<path d="M38.7579 143.421L42.4858 141.296C42.9668 141.016 43.3542 141.143 43.3542 141.577C43.3196 141.844 43.223 142.099 43.0722 142.321C42.9214 142.544 42.7206 142.728 42.4858 142.86L38.7913 144.991C38.3103 145.271 37.9229 145.144 37.9229 144.71C37.9529 144.445 38.0439 144.191 38.1888 143.967C38.3337 143.744 38.5285 143.557 38.7579 143.421Z" fill="#E0E0E0"/>
<path d="M27.5344 122.477L8.54126 111.507V70.7752L27.5344 81.7382V122.477Z" fill="#E0E0E0"/>
<path d="M27.5344 81.7382L54.6713 66.072V106.811L27.5344 122.477V81.7382Z" fill="#EBEBEB"/>
<path d="M54.6713 66.072L27.5344 81.7382L8.54126 70.7752L35.6782 55.109L54.6713 66.072Z" fill="#F5F5F5"/>
<path d="M30.2468 83.3081L51.959 70.7752L52.46 71.0624V86.1541L30.7478 98.687L30.2468 98.3931V83.3081Z" fill="#E0E0E0"/>
<path d="M39.259 81.2371L42.9467 79.106C43.4277 78.8321 43.8152 78.959 43.8152 79.3933C43.7796 79.6597 43.6826 79.9142 43.5319 80.1368C43.3812 80.3594 43.1809 80.5439 42.9467 80.6759L39.259 82.8071C38.778 83.081 38.3905 82.9607 38.3905 82.5265C38.4257 82.259 38.5224 82.0034 38.6731 81.7797C38.8238 81.5559 39.0244 81.3702 39.259 81.2371Z" fill="#E0E0E0"/>
<path d="M29.7524 102.402L51.458 89.8686V104.954L51.959 105.241L30.2468 117.774L29.7524 117.486V102.402Z" fill="#E0E0E0"/>
<path d="M30.2468 102.689L51.959 90.1558V105.241L30.2468 117.774V102.689Z" fill="#F5F5F5"/>
<path d="M38.758 100.331L42.4858 98.1994C42.9601 97.9255 43.3543 98.0524 43.3543 98.4866C43.3167 98.7524 43.2189 99.0062 43.0684 99.2284C42.9179 99.4507 42.7186 99.6357 42.4858 99.7693L38.758 101.88C38.2769 102.154 37.8895 102.027 37.8895 101.6C37.9275 101.336 38.0256 101.084 38.1762 100.864C38.3268 100.644 38.5258 100.462 38.758 100.331Z" fill="#E0E0E0"/>
<path d="M30.2468 83.3081L51.959 70.7752V85.8601L30.2468 98.3931V83.3081Z" fill="#E0E0E0"/>
<path d="M62.8151 78.2308L50.9302 71.3698V84.6643L62.8151 91.5187V78.2308Z" fill="#E0E0E0"/>
<path d="M38.3905 100.544V81.7382L43.0469 79.0392L43.8152 80.1749L57.3837 72.3385V89.5746L38.3905 100.544Z" fill="#EBEBEB"/>
<path d="M38.3905 100.544L39.7467 84.0898L58.7398 73.1268L57.3837 89.5746L38.3905 100.544Z" fill="#F5F5F5"/>
<path d="M41.1029 90.7638L30.7479 84.7846V98.0791L41.1029 104.052V90.7638Z" fill="#EBEBEB"/>
<path d="M41.1029 89.5746L62.8151 77.0417V92.1266L41.1029 104.66V89.5746Z" fill="#F5F5F5"/>
<path d="M49.6141 87.2163L53.3018 85.0852C53.7828 84.8113 54.1703 84.9382 54.1703 85.3725C54.1342 85.6387 54.037 85.8931 53.8863 86.1156C53.7357 86.3381 53.5356 86.5227 53.3018 86.6552L49.6141 88.7863C49.1331 89.0602 48.7456 88.9333 48.7456 88.5057C48.7808 88.2383 48.8775 87.9826 49.0282 87.7589C49.1789 87.5352 49.3795 87.3494 49.6141 87.2163Z" fill="#E0E0E0"/>
<path d="M41.1029 89.5746L40.3813 89.1604V104.245L41.1029 104.66V89.5746Z" fill="#E0E0E0"/>
<path d="M40.3813 89.1604L62.0869 76.6208L62.8151 77.0417L41.1029 89.5746L40.3813 89.1604Z" fill="#EBEBEB"/>
<path d="M251.925 140.882L232.925 129.913V89.1805L251.925 100.143V140.882Z" fill="#E0E0E0"/>
<path d="M251.925 100.143L279.062 84.4773V125.216L251.925 140.882V100.143Z" fill="#EBEBEB"/>
<path d="M279.062 84.4773L251.925 100.143L232.925 89.1805L260.069 73.5076L279.062 84.4773Z" fill="#F5F5F5"/>
<path d="M254.637 101.713L276.35 89.1805L276.851 89.4677L276.844 104.553L255.138 117.086L254.637 116.798V101.713Z" fill="#E0E0E0"/>
<path d="M255.138 102.001L276.851 89.4677L276.844 104.553L255.138 117.086V102.001Z" fill="#F5F5F5"/>
<path d="M263.65 99.6424L267.337 97.5113C267.818 97.2374 268.206 97.3643 268.206 97.7919C268.171 98.0593 268.074 98.3149 267.923 98.5387C267.773 98.7624 267.572 98.9481 267.337 99.0812L263.65 101.212C263.169 101.486 262.781 101.359 262.781 100.932C262.816 100.664 262.913 100.409 263.064 100.185C263.214 99.9612 263.415 99.7755 263.65 99.6424Z" fill="#E0E0E0"/>
<path d="M254.136 120.807L275.848 108.267V123.359L276.35 123.646L254.637 136.179L254.136 135.892V120.807Z" fill="#E0E0E0"/>
<path d="M254.637 121.094L276.35 108.561V123.646L254.637 136.179V121.094Z" fill="#F5F5F5"/>
<path d="M263.149 118.736L266.843 116.605C267.317 116.331 267.705 116.458 267.705 116.885C267.669 117.152 267.573 117.407 267.424 117.63C267.274 117.854 267.076 118.04 266.843 118.175L263.149 120.306C262.668 120.58 262.28 120.453 262.28 120.018C262.316 119.752 262.413 119.498 262.564 119.275C262.715 119.053 262.915 118.868 263.149 118.736Z" fill="#E0E0E0"/>
<path d="M71.2127 183.458C71.2127 183.458 71.2862 172.863 64.6055 164.919C58.6931 157.885 55.5465 153.422 57.4104 151.364C59.2743 149.307 63.2827 148.812 68.6874 154.504C74.0921 160.196 74.5129 175.962 73.7647 179.53L71.2127 183.458Z" fill="#3A57E8"/>
<path opacity="0.2" d="M71.2127 183.458C71.2127 183.458 71.2862 172.863 64.6055 164.919C58.6931 157.885 55.5465 153.422 57.4104 151.364C59.2743 149.307 63.2827 148.812 68.6874 154.504C74.0921 160.196 74.5129 175.962 73.7647 179.53L71.2127 183.458Z" fill="black"/>
<path d="M72.335 172.068C72.2589 172.068 72.185 172.042 72.1255 171.995C72.066 171.948 72.0244 171.881 72.0077 171.807C69.6694 160.871 63.6702 154.825 60.2964 152.193C60.2266 152.138 60.1811 152.059 60.1698 151.971C60.1585 151.884 60.1824 151.795 60.2363 151.725C60.2917 151.655 60.3724 151.609 60.4612 151.598C60.5499 151.586 60.6395 151.611 60.7106 151.665C64.1512 154.337 70.2774 160.523 72.6624 171.667C72.6722 171.709 72.6733 171.753 72.6658 171.797C72.6583 171.84 72.6422 171.881 72.6186 171.917C72.5949 171.954 72.5641 171.986 72.528 172.01C72.492 172.035 72.4513 172.052 72.4085 172.061L72.335 172.068Z" fill="white"/>
<path d="M70.9588 187.393L68.2397 188.963C67.9497 188.171 67.4606 187.466 66.8194 186.917C66.1782 186.368 65.4066 185.994 64.5787 185.83C61.6058 185.162 58.5194 185.275 56.435 182.697C54.3506 180.118 56.8893 177.312 56.435 175.415C55.9807 173.517 55.6868 172.97 51.9589 171.072C48.2311 169.175 46.7614 166.028 49.5672 163.897C52.3731 161.766 56.916 163.329 59.6684 165.233C62.1136 166.903 64.4384 167.344 67.1708 167.685C69.9032 168.026 74.3526 169.542 73.6711 175.889C73.2249 179.817 72.3144 183.679 70.9588 187.393Z" fill="#3A57E8"/>
<path d="M60.5236 179.056C60.4524 179.055 60.3832 179.032 60.3257 178.99C60.2682 178.948 60.2252 178.889 60.2029 178.822C60.1776 178.737 60.1865 178.645 60.2277 178.567C60.2689 178.488 60.3391 178.429 60.4234 178.401C60.6639 178.327 66.436 176.497 68.8878 178.461C68.9487 178.518 68.9857 178.597 68.9917 178.68C68.9977 178.764 68.9721 178.846 68.92 178.912C68.8679 178.977 68.7932 179.021 68.7105 179.034C68.6278 179.047 68.5433 179.028 68.4736 178.982C66.3091 177.245 60.6839 179.022 60.6238 179.042L60.5236 179.056Z" fill="white"/>
<path d="M71.2595 186.885C71.1781 186.886 71.0996 186.856 71.0391 186.802C70.9785 186.747 70.9404 186.672 70.9321 186.591C69.4423 172.522 52.4935 165.848 52.3264 165.781C52.285 165.766 52.2471 165.742 52.2149 165.712C52.1827 165.681 52.1568 165.645 52.1388 165.604C52.1208 165.564 52.1109 165.521 52.1099 165.476C52.1088 165.432 52.1166 165.388 52.1327 165.347C52.1655 165.266 52.2282 165.201 52.3078 165.165C52.3874 165.129 52.4777 165.124 52.5603 165.153C52.7406 165.227 70.0636 172.041 71.5935 186.531C71.6029 186.619 71.5773 186.707 71.5222 186.776C71.4672 186.844 71.3871 186.889 71.2996 186.899L71.2595 186.885Z" fill="white"/>
<path d="M237.428 178.154C237.501 177.92 240.367 163.169 237.428 152.707C234.756 143.114 231.268 139.573 226.298 138.791C221.327 138.01 219.17 141.59 221.808 146.441C224.447 151.291 230.801 157.724 232.357 168.56C233.025 173.023 233.533 176.898 233.533 176.898L237.428 178.154Z" fill="#3A57E8"/>
<path opacity="0.2" d="M237.428 178.154C237.501 177.92 240.367 163.169 237.428 152.707C234.756 143.114 231.268 139.573 226.298 138.791C221.327 138.01 219.17 141.59 221.808 146.441C224.447 151.291 230.801 157.724 232.357 168.56C233.025 173.023 233.533 176.898 233.533 176.898L237.428 178.154Z" fill="black"/>
<path d="M235.751 169.683C235.707 169.68 235.664 169.669 235.625 169.65C235.585 169.63 235.55 169.604 235.521 169.571C235.491 169.538 235.469 169.5 235.455 169.458C235.44 169.416 235.434 169.372 235.437 169.329C236.105 157.383 232.204 146.721 225.209 141.49C225.138 141.437 225.091 141.358 225.079 141.27C225.066 141.182 225.089 141.093 225.142 141.023C225.196 140.953 225.275 140.907 225.362 140.895C225.45 140.882 225.538 140.904 225.61 140.956C232.778 146.3 236.8 157.203 236.098 169.369C236.093 169.456 236.054 169.538 235.989 169.597C235.924 169.655 235.839 169.686 235.751 169.683Z" fill="white"/>
<path d="M245.117 185.837C244.737 183.091 246.313 178.975 250.061 178C253.809 177.025 255.479 174.874 254.13 172.522C252.78 170.17 253.094 168.012 256.495 167.037C259.895 166.062 262.875 164.365 260.917 160.771C259.494 158.172 259.18 156.488 262.668 151.371C265.56 147.122 263.195 144.63 259.574 145.098C255.953 145.565 253.715 149.881 251.451 150.603C249.186 151.324 248.665 147.476 245.679 149.2C242.692 150.923 242.873 155.339 242.779 158.419C242.686 161.499 242.485 162.194 239.786 161.819C237.087 161.445 234.442 161.886 234.502 168.413C234.549 174.012 237.535 180.946 237.535 180.946L245.117 185.837Z" fill="#3A57E8"/>
<path d="M240.381 181.661H240.347C240.258 181.651 240.176 181.606 240.12 181.536C240.064 181.466 240.037 181.376 240.047 181.287C241.931 164.458 256.374 150.262 260.142 147.383C260.213 147.328 260.303 147.305 260.391 147.317C260.479 147.329 260.559 147.375 260.613 147.446C260.667 147.517 260.691 147.606 260.679 147.695C260.667 147.783 260.621 147.863 260.55 147.917C256.829 150.756 242.572 164.766 240.715 181.36C240.705 181.443 240.666 181.518 240.604 181.574C240.543 181.629 240.463 181.66 240.381 181.661Z" fill="white"/>
<path d="M246.968 163.67C246.9 163.67 246.834 163.649 246.778 163.611C246.722 163.573 246.679 163.519 246.654 163.456C246.625 163.372 246.63 163.28 246.668 163.199C246.705 163.118 246.772 163.055 246.854 163.022C252.239 161.018 258.345 161.966 258.606 162.007C258.692 162.021 258.769 162.069 258.821 162.141C258.872 162.212 258.893 162.301 258.88 162.387C258.863 162.474 258.815 162.55 258.744 162.602C258.674 162.654 258.586 162.678 258.499 162.668C258.439 162.668 252.306 161.706 247.088 163.65C247.049 163.663 247.009 163.67 246.968 163.67Z" fill="white"/>
<path d="M242.171 173.785C242.124 173.784 242.078 173.774 242.036 173.754C241.993 173.735 241.955 173.706 241.924 173.671C239.685 171.063 238.167 167.915 237.521 164.539C237.515 164.495 237.517 164.451 237.527 164.408C237.538 164.365 237.557 164.325 237.583 164.29C237.609 164.255 237.642 164.225 237.679 164.202C237.717 164.179 237.759 164.164 237.802 164.158C237.845 164.151 237.89 164.153 237.932 164.164C237.975 164.174 238.015 164.193 238.051 164.219C238.086 164.245 238.116 164.278 238.139 164.315C238.161 164.353 238.176 164.395 238.183 164.438C238.822 167.682 240.282 170.706 242.425 173.223C242.467 173.273 242.494 173.333 242.503 173.397C242.512 173.46 242.502 173.526 242.476 173.584C242.449 173.643 242.406 173.693 242.353 173.729C242.299 173.764 242.236 173.783 242.171 173.785Z" fill="white"/>
<path d="M70.9588 83.9963V187.4L176.794 126.298L176.787 32.2945L98.0957 77.7298L95.3767 69.8933L70.9588 83.9963Z" fill="#3A57E8"/>
<path opacity="0.7" d="M70.9588 83.9963V187.4L176.794 126.298L176.787 32.2945L98.0957 77.7298L95.3767 69.8933L70.9588 83.9963Z" fill="black"/>
<path d="M70.9588 187.4L76.3835 93.396L182.219 32.2945L176.794 126.298L70.9588 187.4Z" fill="#E0E0E0"/>
<path d="M70.9588 187.4L79.0959 94.9659L184.931 33.8578L176.794 126.298L70.9588 187.4Z" fill="#3A57E8"/>
<path opacity="0.7" d="M70.9588 187.4L79.0959 94.9659L184.931 33.8578L176.794 126.298L70.9588 187.4Z" fill="black"/>
<path d="M87.2396 93.396V196.806L193.075 135.698V41.6942L114.377 87.1295L111.664 79.2931L87.2396 93.396Z" fill="#3A57E8"/>
<path opacity="0.5" d="M87.2396 93.396V196.806L193.075 135.698V41.6942L114.377 87.1295L111.664 79.2931L87.2396 93.396Z" fill="black"/>
<path d="M87.2396 196.806L92.6643 102.796L198.5 41.6942L193.075 135.698L87.2396 196.806Z" fill="#E0E0E0"/>
<path d="M87.2396 196.806L95.3767 104.366L201.212 43.2575L193.075 135.698L87.2396 196.806Z" fill="#3A57E8"/>
<path opacity="0.5" d="M87.2396 196.806L95.3767 104.366L201.212 43.2575L193.075 135.698L87.2396 196.806Z" fill="black"/>
<path d="M176.767 229.708C157.768 218.739 140.144 206.814 132.1 192.824L156.552 178.708L176.767 229.708Z" fill="#E0E0E0"/>
<path d="M106.233 104.366V207.769L212.068 146.668V52.6639L133.37 98.0992L130.657 90.2627L106.233 104.366Z" fill="#3A57E8"/>
<path opacity="0.2" d="M106.233 104.366V207.769L212.068 146.668V52.6639L133.37 98.0992L130.657 90.2627L106.233 104.366Z" fill="black"/>
<path d="M136.723 134.936C136.456 134.936 136.416 134.629 136.416 134.449V46.2638C136.438 45.9217 136.538 45.5893 136.71 45.2925C136.881 44.9958 137.119 44.7428 137.405 44.5535L213.792 0.46108C213.896 0.395833 214.016 0.358987 214.139 0.354187C214.406 0.354187 214.446 0.6615 214.446 0.841879V89.0268C214.425 89.3699 214.325 89.7035 214.154 90.0014C213.982 90.2993 213.744 90.5534 213.458 90.7437L137.071 134.836C136.965 134.898 136.846 134.933 136.723 134.936Z" fill="white"/>
<path d="M214.099 0.661492C214.104 0.710335 214.104 0.759625 214.099 0.808468V88.9934C214.077 89.2778 213.992 89.5538 213.85 89.8011C213.708 90.0484 213.512 90.2609 213.277 90.4231L136.89 134.516L136.757 134.576C136.748 134.527 136.748 134.477 136.757 134.429V46.2438C136.78 45.9605 136.865 45.6859 137.008 45.4398C137.15 45.1937 137.345 44.9822 137.579 44.8208L213.965 0.728298C214.008 0.698828 214.055 0.678362 214.106 0.668174M214.146 0.000106727C213.964 0.00552287 213.786 0.0585014 213.631 0.153765L137.244 44.2462C136.909 44.4668 136.629 44.763 136.429 45.111C136.228 45.4591 136.111 45.8493 136.089 46.2504V134.435C136.089 134.956 136.349 135.257 136.757 135.257C136.939 135.252 137.116 135.199 137.271 135.103L213.658 91.011C213.995 90.7919 214.276 90.4961 214.477 90.1478C214.678 89.7994 214.793 89.4084 214.814 89.0068V0.821832C214.814 0.300739 214.553 -0.00657395 214.146 0.000106727Z" fill="#3A57E8"/>
<path opacity="0.7" d="M214.099 0.661492C214.104 0.710335 214.104 0.759625 214.099 0.808468V88.9934C214.077 89.2778 213.992 89.5538 213.85 89.8011C213.708 90.0484 213.512 90.2609 213.277 90.4231L136.89 134.516L136.757 134.576C136.748 134.527 136.748 134.477 136.757 134.429V46.2438C136.78 45.9605 136.865 45.6859 137.008 45.4398C137.15 45.1937 137.345 44.9822 137.579 44.8208L213.965 0.728298C214.008 0.698828 214.055 0.678362 214.106 0.668174M214.146 0.000106727C213.964 0.00552287 213.786 0.0585014 213.631 0.153765L137.244 44.2462C136.909 44.4668 136.629 44.763 136.429 45.111C136.228 45.4591 136.111 45.8493 136.089 46.2504V134.435C136.089 134.956 136.349 135.257 136.757 135.257C136.939 135.252 137.116 135.199 137.271 135.103L213.658 91.011C213.995 90.7919 214.276 90.4961 214.477 90.1478C214.678 89.7994 214.793 89.4084 214.814 89.0068V0.821832C214.814 0.300739 214.553 -0.00657395 214.146 0.000106727Z" fill="white"/>
<path d="M144.226 49.6108L171.363 33.9446V65.277L144.226 80.9432V49.6108Z" fill="#3A57E8"/>
<path opacity="0.8" d="M144.226 49.6108L171.363 33.9446V65.277L144.226 80.9432V49.6108Z" fill="white"/>
<path d="M167.294 41.7543V51.1741L166.439 51.6484V48.769C166.439 47.179 165.15 46.6379 163.546 47.5598L152.049 54.2071C150.452 55.129 149.156 57.1667 149.156 58.7567V61.636L148.308 62.1438V52.744L167.294 41.7543Z" fill="white"/>
<path d="M162.07 65.738C160.68 66.5396 159.551 65.6979 159.551 63.8473V48.769L156.057 50.6664V65.8649C156.057 67.7088 154.928 69.8733 153.539 70.6549L151.013 72.1113V73.1134L164.582 65.277V64.2816L162.07 65.738Z" fill="white"/>
<path d="M176.767 32.4014C176.767 33.2699 177.549 33.5171 178.504 32.9692L204.906 17.7039C205.375 17.4384 205.775 17.068 206.077 16.6218C206.378 16.1755 206.572 15.6656 206.643 15.1318C206.643 14.27 205.862 14.0162 204.906 14.5707L178.524 29.8026C178.048 30.0676 177.641 30.4409 177.336 30.8924C177.031 31.3438 176.836 31.8608 176.767 32.4014Z" fill="#455A64"/>
<path d="M176.767 41.7543C176.767 42.6228 177.549 42.8767 178.504 42.3222L204.886 27.0903C205.355 26.8247 205.755 26.4543 206.057 26.0081C206.358 25.5619 206.552 25.0519 206.623 24.5182C206.623 23.6564 205.842 23.4025 204.886 23.957L178.504 39.189C178.037 39.4538 177.637 39.8232 177.335 40.2682C177.034 40.7132 176.84 41.2218 176.767 41.7543Z" fill="#455A64"/>
<path d="M176.767 51.1741C176.767 52.0426 177.549 52.2964 178.504 51.7419L204.886 36.51C205.354 36.2452 205.754 35.8758 206.055 35.4308C206.357 34.9858 206.551 34.4772 206.623 33.9446C206.623 33.0761 205.842 32.8223 204.886 33.3768L178.504 48.6087C178.037 48.8736 177.637 49.2429 177.335 49.6879C177.034 50.1329 176.84 50.6416 176.767 51.1741Z" fill="#455A64"/>
<path d="M176.767 60.5738C176.767 61.4423 177.549 61.6962 178.504 61.1417L204.886 45.9097C205.354 45.6449 205.754 45.2755 206.055 44.8305C206.357 44.3855 206.551 43.8769 206.623 43.3443C206.623 42.4759 205.842 42.222 204.886 42.7765L178.504 58.0084C178.037 58.2733 177.637 58.6426 177.335 59.0876C177.034 59.5326 176.84 60.0413 176.767 60.5738Z" fill="#455A64"/>
<path d="M144.226 88.7796C144.226 89.6481 145.001 89.902 145.963 89.3475L204.906 55.276C205.375 55.012 205.775 54.6429 206.077 54.1977C206.378 53.7525 206.572 53.2435 206.643 52.7106C206.643 51.8422 205.862 51.595 204.906 52.1428L145.963 86.2142C145.494 86.4779 145.093 86.8469 144.792 87.2921C144.49 87.7374 144.297 88.2466 144.226 88.7796Z" fill="#455A64"/>
<path d="M144.226 98.1793C144.226 99.0478 145.001 99.3017 145.963 98.7472L204.906 64.7158C205.375 64.4503 205.775 64.0799 206.077 63.6337C206.378 63.1874 206.572 62.6775 206.643 62.1438C206.643 61.282 205.862 61.0281 204.906 61.5826L145.963 95.614C145.494 95.8776 145.093 96.2466 144.792 96.6919C144.49 97.1371 144.297 97.6463 144.226 98.1793Z" fill="#455A64"/>
<path d="M144.226 107.586C144.226 108.448 145.001 108.701 145.963 108.147L204.906 74.1155C205.375 73.85 205.775 73.4796 206.077 73.0334C206.378 72.5872 206.572 72.0772 206.643 71.5435C206.643 70.6817 205.862 70.4278 204.906 70.9823L145.963 105.014C145.493 105.278 145.092 105.648 144.79 106.095C144.489 106.541 144.296 107.052 144.226 107.586Z" fill="#455A64"/>
<path d="M106.233 207.769L125.226 124.735L231.061 63.6269L212.068 146.668L106.233 207.769Z" fill="#3A57E8"/>
<path d="M132.127 131.235V192.824L156.552 178.722V117.139L132.127 131.235Z" fill="#3A57E8"/>
<path opacity="0.2" d="M132.127 131.235V192.824L156.552 178.722V117.139L132.127 131.235Z" fill="black"/>
<path d="M176.814 229.308C174.736 227.758 154.708 212.452 144.526 190.56C133.69 167.284 133.704 140.134 133.704 129.919V129.599L206.309 87.684C206.309 97.9923 206.309 125.183 217.192 148.538C227.14 169.916 246.4 185.028 249.453 187.34L176.814 229.308Z" fill="white"/>
<path d="M205.975 88.2853C205.975 99.0278 206.182 125.697 216.892 148.705C226.505 169.349 244.783 184.193 248.852 187.326L176.834 228.907C174.022 226.789 154.748 211.737 144.834 190.446C134.011 167.238 134.011 140.141 134.011 129.939V129.812L205.949 88.2786M206.617 87.1228L133.343 129.432C133.343 139.045 133.143 166.977 144.199 190.727C155.082 214.036 176.767 229.709 176.767 229.709L250.061 187.393C250.061 187.393 228.349 171.72 217.499 148.411C206.436 124.662 206.643 96.7296 206.643 87.1161L206.617 87.1228Z" fill="#3A57E8"/>
<path opacity="0.7" d="M205.975 88.2853C205.975 99.0278 206.182 125.697 216.892 148.705C226.505 169.349 244.783 184.193 248.852 187.326L176.834 228.907C174.022 226.789 154.748 211.737 144.834 190.446C134.011 167.238 134.011 140.141 134.011 129.939V129.812L205.949 88.2786M206.617 87.1228L133.343 129.432C133.343 139.045 133.143 166.977 144.199 190.727C155.082 214.036 176.767 229.709 176.767 229.709L250.061 187.393C250.061 187.393 228.349 171.72 217.499 148.411C206.436 124.662 206.643 96.7296 206.643 87.1161L206.617 87.1228Z" fill="white"/>
<path d="M198.353 101.313L175.184 114.674C174.72 114.929 174.325 115.293 174.032 115.734C173.739 116.174 173.556 116.679 173.5 117.206C173.534 118.054 174.342 118.295 175.298 117.74L198.473 104.379C198.931 104.126 199.322 103.767 199.614 103.333C199.906 102.898 200.089 102.4 200.15 101.88C200.11 100.999 199.315 100.758 198.353 101.313Z" fill="#455A64"/>
<path d="M198.847 110.432L175.678 123.793C175.22 124.04 174.832 124.398 174.549 124.835C174.266 125.271 174.099 125.773 174.062 126.292C174.135 127.113 174.977 127.334 175.932 126.779L199.108 113.418C199.564 113.173 199.949 112.815 200.229 112.379C200.508 111.943 200.672 111.443 200.704 110.926C200.637 110.098 199.809 109.897 198.847 110.432Z" fill="#455A64"/>
<path d="M199.776 119.297L176.6 132.658C175.645 133.213 174.95 134.315 175.064 135.11C175.177 135.905 176.053 136.112 177.015 135.558L200.19 122.196C201.145 121.642 201.827 120.546 201.706 119.751C201.586 118.956 200.731 118.742 199.776 119.297Z" fill="#455A64"/>
<path d="M201.165 127.895L177.99 141.256C177.035 141.811 176.373 142.893 176.534 143.668C176.694 144.443 177.602 144.617 178.538 144.062L201.706 130.701C202.668 130.146 203.31 129.071 203.149 128.296C202.989 127.521 202.154 127.341 201.165 127.895Z" fill="#455A64"/>
<path d="M203.049 136.206L179.874 149.567C178.919 150.122 178.297 151.177 178.538 151.919C178.778 152.66 179.694 152.827 180.649 152.273L203.824 138.911C204.786 138.357 205.387 137.308 205.16 136.56C204.933 135.812 204.005 135.651 203.049 136.206Z" fill="#455A64"/>
<path d="M205.494 144.216L149.016 176.824C148.061 177.379 147.479 178.408 147.74 179.122C148 179.837 148.996 179.971 149.951 179.416L206.43 146.808C207.392 146.254 207.946 145.231 207.686 144.51C207.425 143.788 206.416 143.661 205.494 144.216Z" fill="#455A64"/>
<path d="M208.467 151.865L151.995 184.474C151.033 185.028 150.506 186.03 150.826 186.712C151.147 187.393 152.162 187.5 153.138 186.945L209.616 154.337C210.578 153.783 211.093 152.78 210.772 152.099C210.451 151.418 209.429 151.317 208.467 151.865Z" fill="#455A64"/>
<path d="M212.175 159.154L155.696 191.762C154.734 192.317 154.26 193.292 154.641 193.94C155.022 194.588 156.111 194.655 157.073 194.101L213.511 161.492C214.466 160.944 214.927 159.976 214.547 159.328C214.166 158.68 213.11 158.599 212.175 159.154Z" fill="#455A64"/>
<path d="M216.497 166.048L160.026 198.65C159.064 199.205 158.636 200.16 159.07 200.768C159.505 201.376 160.647 201.436 161.609 200.875L218.081 168.266C219.043 167.712 219.457 166.77 219.023 166.155C218.588 165.541 217.459 165.494 216.497 166.048Z" fill="#455A64"/>
<path d="M221.428 172.602L164.949 205.204C163.994 205.758 163.613 206.687 164.094 207.268C164.575 207.849 165.758 207.876 166.72 207.322L223.198 174.7C224.153 174.145 224.534 173.23 224.04 172.649C223.545 172.068 222.39 172.028 221.428 172.602Z" fill="#455A64"/>
<path d="M226.872 178.842L170.414 211.444C169.452 211.998 169.078 212.907 169.639 213.448C170.2 213.989 171.389 214.002 172.345 213.448L228.823 180.839C229.785 180.285 230.119 179.39 229.585 178.835C229.05 178.281 227.848 178.294 226.872 178.842Z" fill="#455A64"/>
<path d="M232.885 184.808L176.407 217.409C175.451 217.964 175.137 218.852 175.739 219.38C176.34 219.908 177.569 219.888 178.531 219.333L234.963 186.725C235.918 186.171 236.219 185.302 235.631 184.768C235.043 184.233 233.82 184.253 232.885 184.808Z" fill="#455A64"/>
<path d="M166.786 119.544L140.144 134.91C140.438 144.563 141.54 158.486 145.575 172.509L172.225 157.143C168.183 143.12 167.08 129.191 166.786 119.544Z" fill="#3A57E8"/>
<path opacity="0.8" d="M166.786 119.544L140.144 134.91C140.438 144.563 141.54 158.486 145.575 172.509L172.225 157.143C168.183 143.12 167.08 129.191 166.786 119.544Z" fill="white"/>
<path d="M151.007 132.785C151.043 132.162 150.946 131.538 150.722 130.956C150.499 130.373 150.154 129.844 149.711 129.405L140.144 134.923C140.224 137.475 140.358 140.328 140.592 143.401C141.836 143.544 143.095 143.311 144.206 142.733C147.967 141.009 151.007 136.54 151.007 132.785Z" fill="#3A57E8"/>
<path opacity="0.6" d="M151.007 132.785C151.043 132.162 150.946 131.538 150.722 130.956C150.499 130.373 150.154 129.844 149.711 129.405L140.144 134.923C140.224 137.475 140.358 140.328 140.592 143.401C141.836 143.544 143.095 143.311 144.206 142.733C147.967 141.009 151.007 136.54 151.007 132.785Z" fill="white"/>
<path d="M169.96 147.924C168.183 145.686 164.568 138.771 163.025 135.758C162.965 135.639 162.87 135.541 162.753 135.476C162.636 135.412 162.502 135.384 162.369 135.396C162.236 135.408 162.109 135.46 162.006 135.545C161.903 135.63 161.827 135.744 161.789 135.872C160.12 141.579 159.151 147.468 158.903 153.409C156.678 151.642 154.765 149.515 153.245 147.115C153.18 147.022 153.09 146.95 152.985 146.906C152.88 146.863 152.765 146.85 152.654 146.87C152.542 146.89 152.439 146.941 152.355 147.017C152.272 147.094 152.212 147.193 152.182 147.302C149.27 158.519 150.733 169.556 150.733 169.556L172.224 157.143C171.329 154.043 170.588 150.957 169.96 147.924Z" fill="#3A57E8"/>
<path opacity="0.6" d="M169.96 147.924C168.183 145.686 164.568 138.771 163.025 135.758C162.965 135.639 162.87 135.541 162.753 135.476C162.636 135.412 162.502 135.384 162.369 135.396C162.236 135.408 162.109 135.46 162.006 135.545C161.903 135.63 161.827 135.744 161.789 135.872C160.12 141.579 159.151 147.468 158.903 153.409C156.678 151.642 154.765 149.515 153.245 147.115C153.18 147.022 153.09 146.95 152.985 146.906C152.88 146.863 152.765 146.85 152.654 146.87C152.542 146.89 152.439 146.941 152.355 147.017C152.272 147.094 152.212 147.193 152.182 147.302C149.27 158.519 150.733 169.556 150.733 169.556L172.224 157.143C171.329 154.043 170.588 150.957 169.96 147.924Z" fill="white"/>
</svg>
